<svg width="1024" height="1024" viewBox="0 0 1024 1024" fill="none" xmlns="http://www.w3.org/2000/svg">
<mask id="mask0_3387_17" style="mask-type:alpha" maskUnits="userSpaceOnUse" x="0" y="0" width="1024" height="1024">
<rect x="0.5" y="0.5" width="1023" height="1023" fill="url(#paint0_linear_3387_17)" stroke="#0F001B"/>
</mask>
<g mask="url(#mask0_3387_17)">
<rect x="0.5" y="0.5" width="1023" height="1023" fill="#22003D" stroke="#0F001B"/>
<circle cx="512" cy="512" r="320" stroke="#F4E6FF" stroke-width="20"/>
<circle cx="512" cy="512" r="200" fill="#4A0087"/>
<circle cx="512" cy="512" r="420" stroke="#AA43FF" stroke-width="40"/>
<mask id="path-6-outside-1_3387_17" maskUnits="userSpaceOnUse" x="-15" y="399" width="1065" height="287" fill="black">
<rect fill="white" x="-15" y="399" width="1065" height="287"/>
<path d="M25.3406 634V451.12C34.4606 448.48 46.2206 446.08 60.6206 443.92C75.0206 441.52 90.1406 440.32 105.981 440.32C127.581 440.32 144.381 444.04 156.381 451.48C168.381 458.68 176.781 468.76 181.581 481.72C186.381 494.68 188.781 509.8 188.781 527.08V634H135.141V533.56C135.141 522.04 134.181 512.8 132.261 505.84C130.341 498.88 126.981 493.84 122.181 490.72C117.621 487.6 111.141 486.04 102.741 486.04C98.9006 486.04 94.8206 486.28 90.5006 486.76C86.1806 487 82.3406 487.36 78.9806 487.84V634H25.3406ZM298.173 639.04C275.133 639.04 256.293 634.6 241.653 625.72C227.253 616.84 216.573 604.96 209.613 590.08C202.893 574.96 199.533 558.04 199.533 539.32C199.533 521.08 203.373 504.4 211.053 489.28C218.973 474.16 230.133 462.16 244.533 453.28C259.173 444.16 276.693 439.6 297.093 439.6C307.173 439.6 316.413 440.56 324.813 442.48C333.213 444.16 341.373 446.68 349.293 450.04L338.133 492.88C333.093 490.96 327.573 489.28 321.573 487.84C315.573 486.4 308.853 485.68 301.413 485.68C285.573 485.68 273.693 490.6 265.773 500.44C258.093 510.28 254.253 523.24 254.253 539.32C254.253 550.6 255.813 560.32 258.933 568.48C262.053 576.4 267.213 582.52 274.413 586.84C281.853 590.92 291.573 592.96 303.573 592.96C310.053 592.96 317.013 592.36 324.453 591.16C331.893 589.96 338.733 588.04 344.973 585.4L352.533 629.32C346.293 631.96 338.493 634.24 329.133 636.16C319.773 638.08 309.453 639.04 298.173 639.04ZM434.832 639.04C416.352 639.04 400.032 634.84 385.872 626.44C371.952 618.04 361.032 606.4 353.112 591.52C345.432 576.4 341.592 558.88 341.592 538.96C341.592 519.04 345.552 501.64 353.472 486.76C361.632 471.88 372.792 460.36 386.952 452.2C401.112 443.8 417.072 439.6 434.832 439.6C453.072 439.6 469.152 443.8 483.072 452.2C496.992 460.36 507.912 471.88 515.832 486.76C523.752 501.64 527.712 519.04 527.712 538.96C527.712 558.88 523.872 576.4 516.192 591.52C508.512 606.4 497.712 618.04 483.792 626.44C470.112 634.84 453.792 639.04 434.832 639.04ZM434.832 592.96C442.992 592.96 449.832 590.8 455.352 586.48C461.112 581.92 465.432 575.68 468.312 567.76C471.432 559.6 472.992 550 472.992 538.96C472.992 527.92 471.432 518.44 468.312 510.52C465.432 502.6 461.112 496.48 455.352 492.16C449.832 487.84 442.992 485.68 434.832 485.68C426.672 485.68 419.712 487.84 413.952 492.16C408.192 496.48 403.752 502.6 400.632 510.52C397.752 518.44 396.312 527.92 396.312 538.96C396.312 550 397.752 559.6 400.632 567.76C403.752 575.68 408.192 581.92 413.952 586.48C419.712 590.8 426.672 592.96 434.832 592.96ZM587.022 634C581.022 622 574.782 609.04 568.302 595.12C562.062 580.96 555.822 565.96 549.582 550.12C543.582 534.04 537.582 517.24 531.582 499.72C525.582 481.96 519.702 463.6 513.942 444.64H570.822C574.182 457.12 578.022 470.92 582.342 486.04C586.662 500.92 591.222 515.68 596.022 530.32C601.062 544.96 605.742 558.04 610.062 569.56C613.182 560.92 616.542 551.32 620.142 540.76C623.742 530.2 627.222 519.4 630.582 508.36C634.182 497.08 637.542 486.04 640.662 475.24C644.022 464.2 646.902 454 649.302 444.64H704.742C698.982 463.6 693.102 481.96 687.102 499.72C681.102 517.24 674.982 534.04 668.742 550.12C662.742 565.96 656.622 580.96 650.382 595.12C644.142 609.04 637.902 622 631.662 634H587.022ZM790.83 639.04C768.03 639.04 749.19 634.72 734.31 626.08C719.67 617.44 708.75 605.68 701.55 590.8C694.35 575.92 690.75 559.24 690.75 540.76C690.75 518.44 695.07 499.84 703.71 484.96C712.59 469.84 723.87 458.56 737.55 451.12C751.47 443.44 766.11 439.6 781.47 439.6C799.47 439.6 814.95 443.32 827.91 450.76C840.87 457.96 850.83 468.76 857.79 483.16C864.99 497.56 868.59 515.44 868.59 536.8C868.59 539.92 868.47 543.4 868.23 547.24C867.99 550.84 867.75 554.08 867.51 556.96H745.83C747.03 568 752.19 576.76 761.31 583.24C770.43 589.72 782.67 592.96 798.03 592.96C807.87 592.96 817.47 592.12 826.83 590.44C836.43 588.52 844.23 586.24 850.23 583.6L857.43 627.16C851.67 630.04 842.43 632.68 829.71 635.08C817.23 637.72 804.27 639.04 790.83 639.04ZM745.83 520.24H816.75C816.51 514.24 815.19 508.48 812.79 502.96C810.39 497.44 806.67 492.88 801.63 489.28C796.83 485.68 790.35 483.88 782.19 483.88C774.03 483.88 767.43 485.68 762.39 489.28C757.59 492.64 753.87 497.08 751.23 502.6C748.59 508.12 746.79 514 745.83 520.24ZM881.184 634V454.72C890.784 451.36 902.064 448.24 915.024 445.36C928.224 442.24 942.864 440.68 958.944 440.68C962.784 440.68 967.464 441.04 972.984 441.76C978.744 442.24 984.384 442.96 989.904 443.92C995.664 444.88 1000.46 446.2 1004.3 447.88L995.304 492.16C990.504 490.96 984.864 489.76 978.384 488.56C971.904 487.12 964.944 486.4 957.504 486.4C954.144 486.4 950.064 486.76 945.264 487.48C940.704 487.96 937.224 488.56 934.824 489.28V634H881.184Z"/>
</mask>
<path d="M25.3406 634V451.12C34.4606 448.48 46.2206 446.08 60.6206 443.92C75.0206 441.52 90.1406 440.32 105.981 440.32C127.581 440.32 144.381 444.04 156.381 451.48C168.381 458.68 176.781 468.76 181.581 481.72C186.381 494.68 188.781 509.8 188.781 527.08V634H135.141V533.56C135.141 522.04 134.181 512.8 132.261 505.84C130.341 498.88 126.981 493.84 122.181 490.72C117.621 487.6 111.141 486.04 102.741 486.04C98.9006 486.04 94.8206 486.28 90.5006 486.76C86.1806 487 82.3406 487.36 78.9806 487.84V634H25.3406ZM298.173 639.04C275.133 639.04 256.293 634.6 241.653 625.72C227.253 616.84 216.573 604.96 209.613 590.08C202.893 574.96 199.533 558.04 199.533 539.32C199.533 521.08 203.373 504.4 211.053 489.28C218.973 474.16 230.133 462.16 244.533 453.28C259.173 444.16 276.693 439.6 297.093 439.6C307.173 439.6 316.413 440.56 324.813 442.48C333.213 444.16 341.373 446.68 349.293 450.04L338.133 492.88C333.093 490.96 327.573 489.28 321.573 487.84C315.573 486.4 308.853 485.68 301.413 485.68C285.573 485.68 273.693 490.6 265.773 500.44C258.093 510.28 254.253 523.24 254.253 539.32C254.253 550.6 255.813 560.32 258.933 568.48C262.053 576.4 267.213 582.52 274.413 586.84C281.853 590.92 291.573 592.96 303.573 592.96C310.053 592.96 317.013 592.36 324.453 591.16C331.893 589.96 338.733 588.04 344.973 585.4L352.533 629.32C346.293 631.96 338.493 634.24 329.133 636.16C319.773 638.08 309.453 639.04 298.173 639.04ZM434.832 639.04C416.352 639.04 400.032 634.84 385.872 626.44C371.952 618.04 361.032 606.4 353.112 591.52C345.432 576.4 341.592 558.88 341.592 538.96C341.592 519.04 345.552 501.64 353.472 486.76C361.632 471.88 372.792 460.36 386.952 452.2C401.112 443.8 417.072 439.6 434.832 439.6C453.072 439.6 469.152 443.8 483.072 452.2C496.992 460.36 507.912 471.88 515.832 486.76C523.752 501.64 527.712 519.04 527.712 538.96C527.712 558.88 523.872 576.4 516.192 591.52C508.512 606.4 497.712 618.04 483.792 626.44C470.112 634.84 453.792 639.04 434.832 639.04ZM434.832 592.96C442.992 592.96 449.832 590.8 455.352 586.48C461.112 581.92 465.432 575.68 468.312 567.76C471.432 559.6 472.992 550 472.992 538.96C472.992 527.92 471.432 518.44 468.312 510.52C465.432 502.6 461.112 496.48 455.352 492.16C449.832 487.84 442.992 485.68 434.832 485.68C426.672 485.68 419.712 487.84 413.952 492.16C408.192 496.48 403.752 502.6 400.632 510.52C397.752 518.44 396.312 527.92 396.312 538.96C396.312 550 397.752 559.6 400.632 567.76C403.752 575.68 408.192 581.92 413.952 586.48C419.712 590.8 426.672 592.96 434.832 592.96ZM587.022 634C581.022 622 574.782 609.04 568.302 595.12C562.062 580.96 555.822 565.96 549.582 550.12C543.582 534.04 537.582 517.24 531.582 499.72C525.582 481.96 519.702 463.6 513.942 444.64H570.822C574.182 457.12 578.022 470.92 582.342 486.04C586.662 500.92 591.222 515.68 596.022 530.32C601.062 544.96 605.742 558.04 610.062 569.56C613.182 560.92 616.542 551.32 620.142 540.76C623.742 530.2 627.222 519.4 630.582 508.36C634.182 497.08 637.542 486.04 640.662 475.24C644.022 464.2 646.902 454 649.302 444.64H704.742C698.982 463.6 693.102 481.96 687.102 499.72C681.102 517.24 674.982 534.04 668.742 550.12C662.742 565.96 656.622 580.96 650.382 595.12C644.142 609.04 637.902 622 631.662 634H587.022ZM790.83 639.04C768.03 639.04 749.19 634.72 734.31 626.08C719.67 617.44 708.75 605.68 701.55 590.8C694.35 575.92 690.75 559.24 690.75 540.76C690.75 518.44 695.07 499.84 703.71 484.96C712.59 469.84 723.87 458.56 737.55 451.12C751.47 443.44 766.11 439.6 781.47 439.6C799.47 439.6 814.95 443.32 827.91 450.76C840.87 457.96 850.83 468.76 857.79 483.16C864.99 497.56 868.59 515.44 868.59 536.8C868.59 539.92 868.47 543.4 868.23 547.24C867.99 550.84 867.75 554.08 867.51 556.96H745.83C747.03 568 752.19 576.76 761.31 583.24C770.43 589.72 782.67 592.96 798.03 592.96C807.87 592.96 817.47 592.12 826.83 590.44C836.43 588.52 844.23 586.24 850.23 583.6L857.43 627.16C851.67 630.04 842.43 632.68 829.71 635.08C817.23 637.72 804.27 639.04 790.83 639.04ZM745.83 520.24H816.75C816.51 514.24 815.19 508.48 812.79 502.96C810.39 497.44 806.67 492.88 801.63 489.28C796.83 485.68 790.35 483.88 782.19 483.88C774.03 483.88 767.43 485.68 762.39 489.28C757.59 492.64 753.87 497.08 751.23 502.6C748.59 508.12 746.79 514 745.83 520.24ZM881.184 634V454.72C890.784 451.36 902.064 448.24 915.024 445.36C928.224 442.24 942.864 440.68 958.944 440.68C962.784 440.68 967.464 441.04 972.984 441.76C978.744 442.24 984.384 442.96 989.904 443.92C995.664 444.88 1000.46 446.2 1004.3 447.88L995.304 492.16C990.504 490.96 984.864 489.76 978.384 488.56C971.904 487.12 964.944 486.4 957.504 486.4C954.144 486.4 950.064 486.76 945.264 487.48C940.704 487.96 937.224 488.56 934.824 489.28V634H881.184Z" fill="white"/>
<path d="M25.3406 634H-14.6594V674H25.3406V634ZM25.3406 451.12L14.2183 412.697L-14.6594 421.057V451.12H25.3406ZM60.6206 443.92L66.5542 483.477L66.8758 483.429L67.1966 483.376L60.6206 443.92ZM156.381 451.48L135.303 485.476L135.551 485.63L135.801 485.78L156.381 451.48ZM181.581 481.72L144.071 495.613L144.071 495.613L181.581 481.72ZM188.781 634V674H228.781V634H188.781ZM135.141 634H95.1406V674H135.141V634ZM132.261 505.84L93.7009 516.477L93.7009 516.477L132.261 505.84ZM122.181 490.72L99.5933 523.732L99.9841 524L100.381 524.258L122.181 490.72ZM90.5006 486.76L92.7194 526.698L93.8212 526.637L94.9179 526.515L90.5006 486.76ZM78.9806 487.84L73.3238 448.242L38.9806 453.148V487.84H78.9806ZM78.9806 634V674H118.981V634H78.9806ZM25.3406 634H65.3406V451.12H25.3406H-14.6594V634H25.3406ZM25.3406 451.12L36.463 489.543C43.2367 487.582 53.0883 485.497 66.5542 483.477L60.6206 443.92L54.687 404.363C39.353 406.663 25.6845 409.378 14.2183 412.697L25.3406 451.12ZM60.6206 443.92L67.1966 483.376C79.2488 481.367 92.1596 480.32 105.981 480.32V440.32V400.32C88.1217 400.32 70.7924 401.673 54.0446 404.464L60.6206 443.92ZM105.981 440.32V480.32C123.781 480.32 132.146 483.519 135.303 485.476L156.381 451.48L177.458 417.484C156.615 404.561 131.381 400.32 105.981 400.32V440.32ZM156.381 451.48L135.801 485.78C140.108 488.364 142.473 491.298 144.071 495.613L181.581 481.72L219.091 467.827C211.089 446.222 196.653 428.996 176.96 417.18L156.381 451.48ZM181.581 481.72L144.071 495.613C146.87 503.169 148.781 513.402 148.781 527.08H188.781H228.781C228.781 506.198 225.892 486.191 219.091 467.827L181.581 481.72ZM188.781 527.08H148.781V634H188.781H228.781V527.08H188.781ZM188.781 634V594H135.141V634V674H188.781V634ZM135.141 634H175.141V533.56H135.141H95.1406V634H135.141ZM135.141 533.56H175.141C175.141 520.309 174.09 507.054 170.82 495.203L132.261 505.84L93.7009 516.477C94.2716 518.546 95.1406 523.771 95.1406 533.56H135.141ZM132.261 505.84L170.82 495.203C167.003 481.364 158.951 466.913 143.98 457.182L122.181 490.72L100.381 524.258C97.9603 522.684 96.1768 520.765 95.0186 519.028C93.9321 517.398 93.6627 516.339 93.7009 516.477L132.261 505.84ZM122.181 490.72L144.768 457.708C130.921 448.234 115.277 446.04 102.741 446.04V486.04V526.04C104.563 526.04 105.037 526.219 104.538 526.099C103.999 525.969 102.061 525.421 99.5933 523.732L122.181 490.72ZM102.741 486.04V446.04C97.2474 446.04 91.6826 446.383 86.0834 447.005L90.5006 486.76L94.9179 526.515C97.9587 526.177 100.554 526.04 102.741 526.04V486.04ZM90.5006 486.76L88.2819 446.822C83.1066 447.109 78.0836 447.562 73.3238 448.242L78.9806 487.84L84.6375 527.438C86.5976 527.158 89.2547 526.891 92.7194 526.698L90.5006 486.76ZM78.9806 487.84H38.9806V634H78.9806H118.981V487.84H78.9806ZM78.9806 634V594H25.3406V634V674H78.9806V634ZM241.653 625.72L220.657 659.767L220.783 659.844L220.908 659.92L241.653 625.72ZM209.613 590.08L173.06 606.326L173.217 606.678L173.38 607.027L209.613 590.08ZM211.053 489.28L175.62 470.72L175.503 470.942L175.39 471.165L211.053 489.28ZM244.533 453.28L265.528 487.327L265.606 487.279L265.683 487.231L244.533 453.28ZM324.813 442.48L315.9 481.474L316.432 481.596L316.968 481.703L324.813 442.48ZM349.293 450.04L388.001 460.124L396.707 426.704L364.915 413.217L349.293 450.04ZM338.133 492.88L323.893 530.26L365.592 546.145L376.841 502.964L338.133 492.88ZM321.573 487.84L312.238 526.735V526.735L321.573 487.84ZM265.773 500.44L234.612 475.36L234.424 475.593L234.24 475.829L265.773 500.44ZM258.933 568.48L221.571 582.766L221.643 582.954L221.716 583.141L258.933 568.48ZM274.413 586.84L253.833 621.14L254.499 621.539L255.18 621.912L274.413 586.84ZM324.453 591.16L330.822 630.65V630.65L324.453 591.16ZM344.973 585.4L384.393 578.615L375.837 528.909L329.387 548.561L344.973 585.4ZM352.533 629.32L368.118 666.159L397.335 653.798L391.953 622.535L352.533 629.32ZM329.133 636.16L321.095 596.976L329.133 636.16ZM298.173 639.04V599.04C280.001 599.04 268.978 595.511 262.397 591.52L241.653 625.72L220.908 659.92C243.608 673.689 270.265 679.04 298.173 679.04V639.04ZM241.653 625.72L262.648 591.673C254.676 586.757 249.399 580.729 245.845 573.133L209.613 590.08L173.38 607.027C183.747 629.191 199.83 646.923 220.657 659.767L241.653 625.72ZM209.613 590.08L246.165 573.834C241.999 564.46 239.533 553.178 239.533 539.32H199.533H159.533C159.533 562.902 163.787 585.46 173.06 606.326L209.613 590.08ZM199.533 539.32H239.533C239.533 526.889 242.099 516.483 246.716 507.395L211.053 489.28L175.39 471.165C164.646 492.317 159.533 515.271 159.533 539.32H199.533ZM211.053 489.28L246.486 507.84C251.103 499.026 257.302 492.4 265.528 487.327L244.533 453.28L223.537 419.233C202.964 431.92 186.842 449.294 175.62 470.72L211.053 489.28ZM244.533 453.28L265.683 487.231C272.897 482.737 282.786 479.6 297.093 479.6V439.6V399.6C270.599 399.6 245.449 405.583 223.383 419.329L244.533 453.28ZM297.093 439.6V479.6C304.666 479.6 310.868 480.324 315.9 481.474L324.813 442.48L333.726 403.486C321.958 400.796 309.68 399.6 297.093 399.6V439.6ZM324.813 442.48L316.968 481.703C322.689 482.847 328.244 484.561 333.671 486.863L349.293 450.04L364.915 413.217C354.502 408.799 343.736 405.473 332.657 403.257L324.813 442.48ZM349.293 450.04L310.585 439.956L299.425 482.796L338.133 492.88L376.841 502.964L388.001 460.124L349.293 450.04ZM338.133 492.88L352.373 455.5C345.523 452.891 338.341 450.729 330.908 448.945L321.573 487.84L312.238 526.735C316.804 527.831 320.662 529.029 323.893 530.26L338.133 492.88ZM321.573 487.84L330.908 448.945C321.301 446.639 311.377 445.68 301.413 445.68V485.68V525.68C306.329 525.68 309.845 526.161 312.238 526.735L321.573 487.84ZM301.413 485.68V445.68C276.828 445.68 252.01 453.744 234.612 475.36L265.773 500.44L296.933 525.52C296.848 525.626 296.651 525.836 296.362 526.052C296.075 526.266 295.89 526.342 295.928 526.326C296.032 526.283 297.563 525.68 301.413 525.68V485.68ZM265.773 500.44L234.24 475.829C219.665 494.503 214.253 516.918 214.253 539.32H254.253H294.253C294.253 529.562 296.52 526.057 297.305 525.051L265.773 500.44ZM254.253 539.32H214.253C214.253 554.13 216.281 568.932 221.571 582.766L258.933 568.48L296.295 554.194C295.344 551.708 294.253 547.07 294.253 539.32H254.253ZM258.933 568.48L221.716 583.141C228.019 599.139 238.963 612.218 253.833 621.14L274.413 586.84L294.993 552.54C294.964 552.523 295.05 552.573 295.206 552.705C295.365 552.838 295.546 553.015 295.724 553.226C295.901 553.437 296.029 553.626 296.11 553.763C296.189 553.897 296.193 553.93 296.149 553.819L258.933 568.48ZM274.413 586.84L255.18 621.912C270.453 630.288 287.475 632.96 303.573 632.96V592.96V552.96C295.671 552.96 293.253 551.552 293.646 551.768L274.413 586.84ZM303.573 592.96V632.96C312.497 632.96 321.607 632.136 330.822 630.65L324.453 591.16L318.084 551.67C312.419 552.584 307.609 552.96 303.573 552.96V592.96ZM324.453 591.16L330.822 630.65C341.08 628.995 351.055 626.259 360.558 622.239L344.973 585.4L329.387 548.561C326.411 549.82 322.706 550.925 318.083 551.67L324.453 591.16ZM344.973 585.4L305.553 592.185L313.113 636.105L352.533 629.32L391.953 622.535L384.393 578.615L344.973 585.4ZM352.533 629.32L336.947 592.481C333.903 593.769 328.83 595.389 321.095 596.976L329.133 636.16L337.171 675.344C348.155 673.091 358.683 670.151 368.118 666.159L352.533 629.32ZM329.133 636.16L321.095 596.976C314.803 598.267 307.222 599.04 298.173 599.04V639.04V679.04C311.684 679.04 324.743 677.893 337.171 675.344L329.133 636.16ZM385.872 626.44L365.206 660.688L365.335 660.765L365.464 660.842L385.872 626.44ZM353.112 591.52L317.449 609.635L317.622 609.976L317.802 610.314L353.112 591.52ZM353.472 486.76L318.4 467.527L318.28 467.746L318.162 467.966L353.472 486.76ZM386.952 452.2L406.924 486.857L407.143 486.731L407.36 486.602L386.952 452.2ZM483.072 452.2L462.406 486.447L462.624 486.579L462.843 486.708L483.072 452.2ZM515.832 486.76L551.142 467.966V467.966L515.832 486.76ZM516.192 591.52L551.737 609.866L551.797 609.75L551.855 609.635L516.192 591.52ZM483.792 626.44L463.126 592.193L462.993 592.272L462.862 592.353L483.792 626.44ZM455.352 586.48L480.005 617.98L480.093 617.911L480.18 617.842L455.352 586.48ZM468.312 567.76L430.95 553.474L430.833 553.781L430.72 554.09L468.312 567.76ZM468.312 510.52L430.72 524.19L430.902 524.688L431.096 525.181L468.312 510.52ZM455.352 492.16L430.7 523.66L431.023 523.913L431.352 524.16L455.352 492.16ZM413.952 492.16L389.952 460.16V460.16L413.952 492.16ZM400.632 510.52L363.416 495.859L363.222 496.352L363.04 496.85L400.632 510.52ZM400.632 567.76L362.913 581.073L363.152 581.751L363.416 582.421L400.632 567.76ZM413.952 586.48L389.124 617.842L389.534 618.166L389.952 618.48L413.952 586.48ZM434.832 639.04V599.04C422.634 599.04 413.533 596.34 406.28 592.038L385.872 626.44L365.464 660.842C386.532 673.34 410.071 679.04 434.832 679.04V639.04ZM385.872 626.44L406.539 592.193C399.04 587.668 393.077 581.472 388.422 572.726L353.112 591.52L317.802 610.314C328.987 631.328 344.864 648.412 365.206 660.688L385.872 626.44ZM353.112 591.52L388.775 573.405C384.404 564.8 381.592 553.681 381.592 538.96H341.592H301.592C301.592 564.079 306.46 588 317.449 609.635L353.112 591.52ZM341.592 538.96H381.592C381.592 524.404 384.456 513.682 388.782 505.554L353.472 486.76L318.162 467.966C306.648 489.598 301.592 513.676 301.592 538.96H341.592ZM353.472 486.76L388.545 505.993C393.322 497.282 399.367 491.212 406.924 486.857L386.952 452.2L366.98 417.543C346.217 429.508 329.943 446.478 318.4 467.527L353.472 486.76ZM386.952 452.2L407.36 486.602C414.859 482.154 423.669 479.6 434.832 479.6V439.6V399.6C410.476 399.6 387.366 405.446 366.544 417.798L386.952 452.2ZM434.832 439.6V479.6C446.699 479.6 455.458 482.255 462.406 486.447L483.072 452.2L503.739 417.952C482.846 405.345 459.446 399.6 434.832 399.6V439.6ZM483.072 452.2L462.843 486.708C470.087 490.954 475.916 496.9 480.522 505.554L515.832 486.76L551.142 467.966C539.908 446.86 523.897 429.766 503.301 417.692L483.072 452.2ZM515.832 486.76L480.522 505.554C484.848 513.682 487.712 524.404 487.712 538.96H527.712H567.712C567.712 513.676 562.656 489.598 551.142 467.966L515.832 486.76ZM527.712 538.96H487.712C487.712 553.681 484.9 564.8 480.529 573.405L516.192 591.52L551.855 609.635C562.844 588 567.712 564.079 567.712 538.96H527.712ZM516.192 591.52L480.647 573.174C476.254 581.687 470.514 587.734 463.126 592.193L483.792 626.44L504.459 660.688C524.91 648.346 540.771 631.113 551.737 609.866L516.192 591.52ZM483.792 626.44L462.862 592.353C456.54 596.235 447.757 599.04 434.832 599.04V639.04V679.04C459.828 679.04 483.684 673.445 504.723 660.527L483.792 626.44ZM434.832 592.96V632.96C450.398 632.96 466.33 628.682 480.005 617.98L455.352 586.48L430.7 554.98C431.799 554.119 432.999 553.524 434.037 553.197C435.008 552.89 435.379 552.96 434.832 552.96V592.96ZM455.352 586.48L480.18 617.842C492.567 608.036 500.871 595.269 505.904 581.43L468.312 567.76L430.72 554.09C430.325 555.179 430.032 555.601 430.024 555.612C430.018 555.621 430.061 555.558 430.16 555.452C430.26 555.345 430.384 555.229 430.524 555.118L455.352 586.48ZM468.312 567.76L505.674 582.046C510.93 568.299 512.992 553.649 512.992 538.96H472.992H432.992C432.992 546.351 431.934 550.901 430.95 553.474L468.312 567.76ZM472.992 538.96H512.992C512.992 524.32 510.945 509.607 505.529 495.859L468.312 510.52L431.096 525.181C431.92 527.273 432.992 531.52 432.992 538.96H472.992ZM468.312 510.52L505.904 496.85C500.831 482.9 492.326 469.89 479.352 460.16L455.352 492.16L431.352 524.16C431.077 523.954 430.832 523.734 430.626 523.521C430.422 523.309 430.294 523.143 430.233 523.057C430.109 522.881 430.345 523.157 430.72 524.19L468.312 510.52ZM455.352 492.16L480.005 460.66C466.33 449.958 450.398 445.68 434.832 445.68V485.68V525.68C435.379 525.68 435.008 525.75 434.037 525.443C432.999 525.116 431.799 524.521 430.7 523.66L455.352 492.16ZM434.832 485.68V445.68C419.225 445.68 403.544 449.966 389.952 460.16L413.952 492.16L437.952 524.16C437.124 524.781 436.187 525.242 435.348 525.503C434.56 525.747 434.297 525.68 434.832 525.68V485.68ZM413.952 492.16L389.952 460.16C377.261 469.678 368.75 482.318 363.416 495.859L400.632 510.52L437.849 525.181C438.326 523.969 438.668 523.495 438.679 523.479C438.685 523.47 438.626 523.552 438.491 523.691C438.354 523.831 438.173 523.995 437.952 524.16L413.952 492.16ZM400.632 510.52L363.04 496.85C358.159 510.274 356.312 524.624 356.312 538.96H396.312H436.312C436.312 531.216 437.345 526.606 438.224 524.19L400.632 510.52ZM396.312 538.96H356.312C356.312 553.344 358.172 567.642 362.913 581.073L400.632 567.76L438.352 554.447C437.332 551.558 436.312 546.656 436.312 538.96H396.312ZM400.632 567.76L363.416 582.421C368.706 595.849 377.009 608.251 389.124 617.842L413.952 586.48L438.78 555.118C438.985 555.28 439.018 555.364 438.894 555.19C438.751 554.99 438.349 554.37 437.849 553.099L400.632 567.76ZM413.952 586.48L389.952 618.48C403.544 628.674 419.225 632.96 434.832 632.96V592.96V552.96C434.297 552.96 434.56 552.893 435.348 553.137C436.187 553.398 437.124 553.859 437.952 554.48L413.952 586.48ZM587.022 634L551.245 651.889L562.301 674H587.022V634ZM568.302 595.12L531.699 611.25L531.865 611.628L532.039 612.001L568.302 595.12ZM549.582 550.12L512.106 564.104L512.233 564.443L512.366 564.781L549.582 550.12ZM531.582 499.72L493.686 512.523L493.713 512.601L493.74 512.68L531.582 499.72ZM513.942 444.64V404.64H459.985L475.669 456.267L513.942 444.64ZM570.822 444.64L609.447 434.241L601.477 404.64H570.822V444.64ZM582.342 486.04L543.881 497.029L543.905 497.111L543.928 497.192L582.342 486.04ZM596.022 530.32L558.013 542.782L558.105 543.062L558.201 543.341L596.022 530.32ZM610.062 569.56L572.609 583.605L610.77 685.369L647.684 583.146L610.062 569.56ZM620.142 540.76L582.282 527.853V527.853L620.142 540.76ZM630.582 508.36L592.476 496.198L592.394 496.455L592.315 496.714L630.582 508.36ZM640.662 475.24L602.395 463.594L602.312 463.865L602.234 464.138L640.662 475.24ZM649.302 444.64V404.64H618.265L610.556 434.705L649.302 444.64ZM704.742 444.64L743.015 456.267L758.699 404.64H704.742V444.64ZM687.102 499.72L724.945 512.68L724.971 512.601L724.998 512.523L687.102 499.72ZM668.742 550.12L631.452 535.649L631.393 535.8L631.336 535.951L668.742 550.12ZM650.382 595.12L686.883 611.482L686.934 611.366L686.986 611.25L650.382 595.12ZM631.662 634V674H655.947L667.151 652.454L631.662 634ZM587.022 634L622.799 616.111C616.988 604.488 610.91 591.868 604.565 578.239L568.302 595.12L532.039 612.001C538.654 626.212 545.057 639.512 551.245 651.889L587.022 634ZM568.302 595.12L604.906 578.99C598.9 565.361 592.863 550.853 586.799 535.459L549.582 550.12L512.366 564.781C518.781 581.067 525.225 596.559 531.699 611.25L568.302 595.12ZM549.582 550.12L587.058 536.136C581.194 520.421 575.316 503.964 569.425 486.76L531.582 499.72L493.74 512.68C499.848 530.516 505.97 547.659 512.106 564.104L549.582 550.12ZM531.582 499.72L569.478 486.917C563.617 469.569 557.862 451.601 552.215 433.013L513.942 444.64L475.669 456.267C481.542 475.599 487.547 494.351 493.686 512.523L531.582 499.72ZM513.942 444.64V484.64H570.822V444.64V404.64H513.942V444.64ZM570.822 444.64L532.198 455.039C535.62 467.753 539.517 481.753 543.881 497.029L582.342 486.04L620.803 475.051C616.528 460.087 612.744 446.487 609.447 434.241L570.822 444.64ZM582.342 486.04L543.928 497.192C548.375 512.509 553.07 527.705 558.013 542.782L596.022 530.32L634.031 517.858C629.375 503.655 624.949 489.331 620.756 474.888L582.342 486.04ZM596.022 530.32L558.201 543.341C563.33 558.241 568.134 571.672 572.609 583.605L610.062 569.56L647.515 555.515C643.35 544.408 638.794 531.679 633.844 517.299L596.022 530.32ZM610.062 569.56L647.684 583.146C650.901 574.239 654.341 564.408 658.003 553.667L620.142 540.76L582.282 527.853C578.743 538.232 575.464 547.601 572.44 555.974L610.062 569.56ZM620.142 540.76L658.003 553.667C661.75 542.675 665.365 531.454 668.849 520.006L630.582 508.36L592.315 496.714C589.079 507.346 585.734 517.725 582.282 527.853L620.142 540.76ZM630.582 508.36L668.689 520.522C672.395 508.908 675.863 497.515 679.091 486.342L640.662 475.24L602.234 464.138C599.221 474.565 595.969 485.252 592.476 496.198L630.582 508.36ZM640.662 475.24L678.929 486.886C682.43 475.384 685.477 464.606 688.049 454.575L649.302 444.64L610.556 434.705C608.328 443.394 605.615 453.016 602.395 463.594L640.662 475.24ZM649.302 444.64V484.64H704.742V444.64V404.64H649.302V444.64ZM704.742 444.64L666.469 433.013C660.822 451.601 655.067 469.569 649.206 486.917L687.102 499.72L724.998 512.523C731.137 494.351 737.142 475.599 743.015 456.267L704.742 444.64ZM687.102 499.72L649.26 486.76C643.421 503.81 637.484 520.104 631.452 535.649L668.742 550.12L706.033 564.591C712.48 547.976 718.783 530.67 724.945 512.68L687.102 499.72ZM668.742 550.12L631.336 535.951C625.563 551.191 619.709 565.533 613.779 578.99L650.382 595.12L686.986 611.25C693.536 596.387 699.921 580.729 706.149 564.289L668.742 550.12ZM650.382 595.12L613.882 578.758C607.919 592.058 602.014 604.313 596.173 615.546L631.662 634L667.151 652.454C673.79 639.687 680.365 626.022 686.883 611.482L650.382 595.12ZM631.662 634V594H587.022V634V674H631.662V634ZM734.31 626.08L713.98 660.528L714.102 660.6L714.225 660.672L734.31 626.08ZM701.55 590.8L665.544 608.222V608.222L701.55 590.8ZM703.71 484.96L669.219 464.703L669.168 464.789L669.118 464.875L703.71 484.96ZM737.55 451.12L756.661 486.259L756.767 486.202L756.873 486.143L737.55 451.12ZM827.91 450.76L807.995 485.45L808.239 485.59L808.484 485.726L827.91 450.76ZM857.79 483.16L821.776 500.567L821.893 500.808L822.013 501.049L857.79 483.16ZM868.23 547.24L908.141 549.901L908.147 549.818L908.152 549.735L868.23 547.24ZM867.51 556.96V596.96H904.315L907.372 560.282L867.51 556.96ZM745.83 556.96V516.96H701.247L706.064 561.282L745.83 556.96ZM761.31 583.24L738.142 615.847V615.847L761.31 583.24ZM826.83 590.44L833.897 629.811L834.286 629.741L834.675 629.663L826.83 590.44ZM850.23 583.6L889.695 577.077L881.291 526.233L834.12 546.987L850.23 583.6ZM857.43 627.16L875.319 662.937L901.706 649.744L896.895 620.637L857.43 627.16ZM829.71 635.08L822.294 595.774L821.862 595.855L821.432 595.946L829.71 635.08ZM745.83 520.24L706.295 514.158L699.206 560.24H745.83V520.24ZM816.75 520.24V560.24H858.382L856.718 518.641L816.75 520.24ZM812.79 502.96L776.107 518.909V518.909L812.79 502.96ZM801.63 489.28L777.63 521.28L778.002 521.559L778.38 521.829L801.63 489.28ZM762.39 489.28L785.328 522.049L785.485 521.94L785.64 521.829L762.39 489.28ZM751.23 502.6L787.315 519.858V519.858L751.23 502.6ZM790.83 639.04V599.04C772.862 599.04 761.503 595.615 754.395 591.488L734.31 626.08L714.225 660.672C736.877 673.825 763.198 679.04 790.83 679.04V639.04ZM734.31 626.08L754.64 591.632C746.585 586.878 741.221 580.951 737.556 573.378L701.55 590.8L665.544 608.222C676.279 630.409 692.755 648.002 713.98 660.528L734.31 626.08ZM701.55 590.8L737.556 573.378C733.28 564.541 730.75 553.923 730.75 540.76H690.75H650.75C650.75 564.557 655.42 587.299 665.544 608.222L701.55 590.8ZM690.75 540.76H730.75C730.75 523.448 734.107 512.269 738.302 505.045L703.71 484.96L669.118 464.875C656.033 487.411 650.75 513.432 650.75 540.76H690.75ZM703.71 484.96L738.201 505.217C743.876 495.554 750.141 489.805 756.661 486.259L737.55 451.12L718.439 415.981C697.599 427.315 681.304 444.126 669.219 464.703L703.71 484.96ZM737.55 451.12L756.873 486.143C765.092 481.609 773.11 479.6 781.47 479.6V439.6V399.6C759.11 399.6 737.848 405.271 718.227 416.097L737.55 451.12ZM781.47 439.6V479.6C793.91 479.6 802.225 482.137 807.995 485.45L827.91 450.76L847.825 416.07C827.675 404.503 805.03 399.6 781.47 399.6V439.6ZM827.91 450.76L808.484 485.726C813.661 488.603 818.106 492.973 821.776 500.567L857.79 483.16L893.804 465.753C883.554 444.547 868.078 427.317 847.336 415.794L827.91 450.76ZM857.79 483.16L822.013 501.049C825.681 508.384 828.59 519.707 828.59 536.8H868.59H908.59C908.59 511.173 904.299 486.736 893.567 465.271L857.79 483.16ZM868.59 536.8H828.59C828.59 538.923 828.507 541.553 828.308 544.745L868.23 547.24L908.152 549.735C908.433 545.247 908.59 540.917 908.59 536.8H868.59ZM868.23 547.24L828.319 544.579C828.09 548.01 827.866 551.024 827.648 553.638L867.51 556.96L907.372 560.282C907.634 557.136 907.89 553.67 908.141 549.901L868.23 547.24ZM867.51 556.96V516.96H745.83V556.96V596.96H867.51V556.96ZM745.83 556.96L706.064 561.282C708.51 583.786 719.78 602.801 738.142 615.847L761.31 583.24L784.478 550.633C784.222 550.451 784.235 550.426 784.401 550.603C784.574 550.787 784.821 551.094 785.065 551.509C785.31 551.924 785.467 552.304 785.556 552.58C785.641 552.846 785.623 552.892 785.596 552.638L745.83 556.96ZM761.31 583.24L738.142 615.847C756.136 628.633 777.391 632.96 798.03 632.96V592.96V552.96C787.949 552.96 784.724 550.807 784.478 550.633L761.31 583.24ZM798.03 592.96V632.96C810.157 632.96 822.125 631.924 833.897 629.811L826.83 590.44L819.763 551.069C812.815 552.316 805.583 552.96 798.03 552.96V592.96ZM826.83 590.44L834.675 629.663C845.869 627.424 856.733 624.439 866.34 620.213L850.23 583.6L834.12 546.987C831.727 548.041 826.991 549.616 818.985 551.217L826.83 590.44ZM850.23 583.6L810.765 590.123L817.965 633.683L857.43 627.16L896.895 620.637L889.695 577.077L850.23 583.6ZM857.43 627.16L839.541 591.383C839.666 591.321 838.472 591.902 835.191 592.839C832.071 593.73 827.833 594.728 822.294 595.774L829.71 635.08L837.126 674.386C850.595 671.845 864.374 668.409 875.319 662.937L857.43 627.16ZM829.71 635.08L821.432 595.946C811.815 597.98 801.636 599.04 790.83 599.04V639.04V679.04C806.904 679.04 822.645 677.46 837.988 674.214L829.71 635.08ZM745.83 520.24V560.24H816.75V520.24V480.24H745.83V520.24ZM816.75 520.24L856.718 518.641C856.28 507.684 853.841 497.059 849.473 487.011L812.79 502.96L776.107 518.909C776.539 519.901 776.74 520.796 776.782 521.839L816.75 520.24ZM812.79 502.96L849.473 487.011C844.095 474.643 835.639 464.416 824.88 456.731L801.63 489.28L778.38 521.829C778.159 521.671 777.708 521.301 777.205 520.685C776.698 520.063 776.333 519.429 776.107 518.909L812.79 502.96ZM801.63 489.28L825.63 457.28C811.796 446.905 795.932 443.88 782.19 443.88V483.88V523.88C784.768 523.88 781.864 524.455 777.63 521.28L801.63 489.28ZM782.19 483.88V443.88C768.318 443.88 752.826 446.955 739.14 456.731L762.39 489.28L785.64 521.829C783.927 523.053 782.434 523.605 781.645 523.821C780.93 524.015 781.004 523.88 782.19 523.88V483.88ZM762.39 489.28L739.452 456.511C728.752 464.001 720.621 473.892 715.145 485.342L751.23 502.6L787.315 519.858C787.269 519.955 787.073 520.327 786.661 520.819C786.242 521.318 785.768 521.741 785.328 522.049L762.39 489.28ZM751.23 502.6L715.145 485.342C710.76 494.51 707.832 504.168 706.295 514.158L745.83 520.24L785.365 526.322C785.748 523.832 786.42 521.73 787.315 519.858L751.23 502.6ZM881.184 634H841.184V674H881.184V634ZM881.184 454.72L867.97 416.966L841.184 426.341V454.72H881.184ZM915.024 445.36L923.702 484.407L923.964 484.349L924.225 484.287L915.024 445.36ZM972.984 441.76L967.811 481.424L968.734 481.544L969.662 481.622L972.984 441.76ZM989.904 443.92L983.051 483.328L983.19 483.353L983.328 483.376L989.904 443.92ZM1004.3 447.88L1043.5 455.847L1049.94 424.184L1020.34 411.234L1004.3 447.88ZM995.304 492.16L985.603 530.966L1026.17 541.108L1034.5 500.127L995.304 492.16ZM978.384 488.56L969.707 527.607L970.401 527.762L971.101 527.891L978.384 488.56ZM945.264 487.48L949.452 527.26L950.327 527.168L951.198 527.037L945.264 487.48ZM934.824 489.28L923.33 450.967L894.824 459.519V489.28H934.824ZM934.824 634V674H974.824V634H934.824ZM881.184 634H921.184V454.72H881.184H841.184V634H881.184ZM881.184 454.72L894.398 492.474C902.145 489.763 911.843 487.043 923.702 484.407L915.024 445.36L906.347 406.312C892.286 409.437 879.424 412.957 867.97 416.966L881.184 454.72ZM915.024 445.36L924.225 484.287C933.915 481.997 945.409 480.68 958.944 480.68V440.68V400.68C940.32 400.68 922.534 402.483 905.823 406.433L915.024 445.36ZM958.944 440.68V480.68C960.476 480.68 963.317 480.838 967.811 481.424L972.984 441.76L978.158 402.096C971.612 401.242 965.093 400.68 958.944 400.68V440.68ZM972.984 441.76L969.662 481.622C974.276 482.006 978.737 482.578 983.051 483.328L989.904 443.92L996.758 404.512C990.032 403.342 983.213 402.474 976.306 401.898L972.984 441.76ZM989.904 443.92L983.328 483.376C985.076 483.667 986.349 483.959 987.218 484.198C988.098 484.44 988.402 484.583 988.272 484.526L1004.3 447.88L1020.34 411.234C1012.55 407.827 1004.33 405.772 996.48 404.464L989.904 443.92ZM1004.3 447.88L965.106 439.913L956.106 484.193L995.304 492.16L1034.5 500.127L1043.5 455.847L1004.3 447.88ZM995.304 492.16L1005.01 453.354C999.194 451.901 992.712 450.533 985.668 449.229L978.384 488.56L971.101 527.891C977.017 528.987 981.815 530.019 985.603 530.966L995.304 492.16ZM978.384 488.56L987.062 449.513C977.414 447.369 967.518 446.4 957.504 446.4V486.4V526.4C962.371 526.4 966.394 526.871 969.707 527.607L978.384 488.56ZM957.504 486.4V446.4C951.499 446.4 945.312 447.025 939.331 447.923L945.264 487.48L951.198 527.037C954.816 526.495 956.79 526.4 957.504 526.4V486.4ZM945.264 487.48L941.077 447.7C935.717 448.264 929.316 449.171 923.33 450.967L934.824 489.28L946.318 527.593C945.858 527.731 945.595 527.79 945.588 527.791C945.573 527.795 945.711 527.764 946.031 527.708C946.695 527.594 947.803 527.434 949.452 527.26L945.264 487.48ZM934.824 489.28H894.824V634H934.824H974.824V489.28H934.824ZM934.824 634V594H881.184V634V674H934.824V634Z" fill="#4A0087" mask="url(#path-6-outside-1_3387_17)"/>
<path d="M592 512C592 556.183 556.183 592 512 592C467.817 592 432 556.183 432 512C432 467.817 467.817 432 512 432C556.183 432 592 467.817 592 512Z" fill="#4A0087"/>
<path d="M592 512C592 556.183 556.183 592 512 592C467.817 592 432 556.183 432 512C432 467.817 467.817 432 512 432C556.183 432 592 467.817 592 512Z" fill="#4A0087"/>
<path d="M552 512C552 534.091 534.091 552 512 552C489.909 552 472 534.091 472 512C472 489.909 489.909 472 512 472C534.091 472 552 489.909 552 512Z" fill="#AA43FF"/>
<path d="M552 512C552 534.091 534.091 552 512 552C489.909 552 472 534.091 472 512C472 489.909 489.909 472 512 472C534.091 472 552 489.909 552 512Z" fill="#AA43FF"/>
</g>
<defs>
<linearGradient id="paint0_linear_3387_17" x1="512" y1="0" x2="512" y2="1024" gradientUnits="userSpaceOnUse">
<stop offset="0.0961538" stop-color="#AA43FF"/>
<stop offset="0.899038" stop-color="#181825"/>
</linearGradient>
</defs>
</svg>
