<svg width="1024" height="1024" viewBox="0 0 1024 1024" fill="none" xmlns="http://www.w3.org/2000/svg">
<mask id="mask0_3323_75" style="mask-type:alpha" maskUnits="userSpaceOnUse" x="0" y="0" width="1024" height="1024">
<rect width="1024" height="1024" fill="url(#paint0_linear_3323_75)"/>
</mask>
<g mask="url(#mask0_3323_75)">
<rect width="1024" height="1024" rx="80" fill="url(#paint1_linear_3323_75)"/>
<path d="M0 442H206C233.614 442 256 464.386 256 492V676C256 703.614 233.614 726 206 726H0V442Z" fill="#FF0004" style="mix-blend-mode:soft-light"/>
<path d="M256 442H462C489.614 442 512 464.386 512 492V676C512 703.614 489.614 726 462 726H256V442Z" fill="#F7FF00" style="mix-blend-mode:saturation"/>
<path d="M512 442H718C745.614 442 768 464.386 768 492V676C768 703.614 745.614 726 718 726H512V442Z" fill="#00FF22" style="mix-blend-mode:overlay"/>
<path d="M768 442H974C1001.61 442 1024 464.386 1024 492V676C1024 703.614 1001.61 726 974 726H768V442Z" fill="url(#paint2_linear_3323_75)"/>
<g opacity="0.5">
<path d="M1 126H285L632 948L1 410V126Z" fill="#FF0004" style="mix-blend-mode:screen"/>
<path d="M142 126H426L700 550L142 410V126Z" fill="#F7FF00" style="mix-blend-mode:screen"/>
<path d="M880 548L542.446 994L200 102L542.446 102L880 548Z" fill="#00FF22" style="mix-blend-mode:screen"/>
<path d="M224 64H618L914 538H483.492L224 64Z" fill="#001AFF" style="mix-blend-mode:screen"/>
</g>
<mask id="path-11-outside-1_3323_75" maskUnits="userSpaceOnUse" x="48" y="322" width="949" height="419" fill="black">
<rect fill="white" x="48" y="322" width="949" height="419"/>
<path d="M203.356 700.88C176.476 700.88 154.496 695.7 137.416 685.34C120.616 674.98 108.156 661.12 100.036 643.76C92.1958 626.12 88.2758 606.38 88.2758 584.54C88.2758 563.26 92.7558 543.8 101.716 526.16C110.956 508.52 123.976 494.52 140.776 484.16C157.856 473.52 178.296 468.2 202.096 468.2C213.856 468.2 224.636 469.32 234.436 471.56C244.236 473.52 253.756 476.46 262.996 480.38L249.976 530.36C244.096 528.12 237.656 526.16 230.656 524.48C223.656 522.8 215.816 521.96 207.136 521.96C188.656 521.96 174.796 527.7 165.556 539.18C156.596 550.66 152.116 565.78 152.116 584.54C152.116 597.7 153.936 609.04 157.576 618.56C161.216 627.8 167.236 634.94 175.636 639.98C184.316 644.74 195.656 647.12 209.656 647.12C217.216 647.12 225.336 646.42 234.016 645.02C242.696 643.62 250.676 641.38 257.956 638.3L266.776 689.54C259.496 692.62 250.396 695.28 239.476 697.52C228.556 699.76 216.516 700.88 203.356 700.88ZM362.792 700.88C341.232 700.88 322.192 695.98 305.672 686.18C289.432 676.38 276.692 662.8 267.452 645.44C258.492 627.8 254.012 607.36 254.012 584.12C254.012 560.88 258.632 540.58 267.872 523.22C277.392 505.86 290.412 492.42 306.932 482.9C323.452 473.1 342.072 468.2 362.792 468.2C384.072 468.2 402.832 473.1 419.072 482.9C435.312 492.42 448.052 505.86 457.292 523.22C466.532 540.58 471.152 560.88 471.152 584.12C471.152 607.36 466.672 627.8 457.712 645.44C448.752 662.8 436.152 676.38 419.912 686.18C403.952 695.98 384.912 700.88 362.792 700.88ZM362.792 647.12C372.312 647.12 380.292 644.6 386.732 639.56C393.452 634.24 398.492 626.96 401.852 617.72C405.492 608.2 407.312 597 407.312 584.12C407.312 571.24 405.492 560.18 401.852 550.94C398.492 541.7 393.452 534.56 386.732 529.52C380.292 524.48 372.312 521.96 362.792 521.96C353.272 521.96 345.152 524.48 338.432 529.52C331.712 534.56 326.532 541.7 322.892 550.94C319.532 560.18 317.852 571.24 317.852 584.12C317.852 597 319.532 608.2 322.892 617.72C326.532 626.96 331.712 634.24 338.432 639.56C345.152 644.6 353.272 647.12 362.792 647.12ZM574.229 699.2C550.149 698.64 531.669 695.28 518.789 689.12C506.189 682.96 497.509 674.28 492.749 663.08C488.269 651.6 486.029 638.02 486.029 622.34V379.16L548.609 369.08V609.74C548.609 620.94 550.569 629.76 554.489 636.2C558.689 642.64 568.209 646.42 583.049 647.54L574.229 699.2ZM683.6 700.88C662.04 700.88 643 695.98 626.48 686.18C610.24 676.38 597.5 662.8 588.26 645.44C579.3 627.8 574.82 607.36 574.82 584.12C574.82 560.88 579.44 540.58 588.68 523.22C598.2 505.86 611.22 492.42 627.74 482.9C644.26 473.1 662.88 468.2 683.6 468.2C704.88 468.2 723.64 473.1 739.88 482.9C756.12 492.42 768.86 505.86 778.1 523.22C787.34 540.58 791.96 560.88 791.96 584.12C791.96 607.36 787.48 627.8 778.52 645.44C769.56 662.8 756.96 676.38 740.72 686.18C724.76 695.98 705.72 700.88 683.6 700.88ZM683.6 647.12C693.12 647.12 701.1 644.6 707.54 639.56C714.26 634.24 719.3 626.96 722.66 617.72C726.3 608.2 728.12 597 728.12 584.12C728.12 571.24 726.3 560.18 722.66 550.94C719.3 541.7 714.26 534.56 707.54 529.52C701.1 524.48 693.12 521.96 683.6 521.96C674.08 521.96 665.96 524.48 659.24 529.52C652.52 534.56 647.34 541.7 643.7 550.94C640.34 560.18 638.66 571.24 638.66 584.12C638.66 597 640.34 608.2 643.7 617.72C647.34 626.96 652.52 634.24 659.24 639.56C665.96 644.6 674.08 647.12 683.6 647.12ZM806.837 695V485.84C818.037 481.92 831.197 478.28 846.317 474.92C861.717 471.28 878.797 469.46 897.557 469.46C902.037 469.46 907.497 469.88 913.937 470.72C920.657 471.28 927.237 472.12 933.677 473.24C940.397 474.36 945.997 475.9 950.477 477.86L939.977 529.52C934.377 528.12 927.797 526.72 920.237 525.32C912.677 523.64 904.557 522.8 895.877 522.8C891.957 522.8 887.197 523.22 881.597 524.06C876.277 524.62 872.217 525.32 869.417 526.16V695H806.837Z"/>
</mask>
<path d="M203.356 700.88C176.476 700.88 154.496 695.7 137.416 685.34C120.616 674.98 108.156 661.12 100.036 643.76C92.1958 626.12 88.2758 606.38 88.2758 584.54C88.2758 563.26 92.7558 543.8 101.716 526.16C110.956 508.52 123.976 494.52 140.776 484.16C157.856 473.52 178.296 468.2 202.096 468.2C213.856 468.2 224.636 469.32 234.436 471.56C244.236 473.52 253.756 476.46 262.996 480.38L249.976 530.36C244.096 528.12 237.656 526.16 230.656 524.48C223.656 522.8 215.816 521.96 207.136 521.96C188.656 521.96 174.796 527.7 165.556 539.18C156.596 550.66 152.116 565.78 152.116 584.54C152.116 597.7 153.936 609.04 157.576 618.56C161.216 627.8 167.236 634.94 175.636 639.98C184.316 644.74 195.656 647.12 209.656 647.12C217.216 647.12 225.336 646.42 234.016 645.02C242.696 643.62 250.676 641.38 257.956 638.3L266.776 689.54C259.496 692.62 250.396 695.28 239.476 697.52C228.556 699.76 216.516 700.88 203.356 700.88ZM362.792 700.88C341.232 700.88 322.192 695.98 305.672 686.18C289.432 676.38 276.692 662.8 267.452 645.44C258.492 627.8 254.012 607.36 254.012 584.12C254.012 560.88 258.632 540.58 267.872 523.22C277.392 505.86 290.412 492.42 306.932 482.9C323.452 473.1 342.072 468.2 362.792 468.2C384.072 468.2 402.832 473.1 419.072 482.9C435.312 492.42 448.052 505.86 457.292 523.22C466.532 540.58 471.152 560.88 471.152 584.12C471.152 607.36 466.672 627.8 457.712 645.44C448.752 662.8 436.152 676.38 419.912 686.18C403.952 695.98 384.912 700.88 362.792 700.88ZM362.792 647.12C372.312 647.12 380.292 644.6 386.732 639.56C393.452 634.24 398.492 626.96 401.852 617.72C405.492 608.2 407.312 597 407.312 584.12C407.312 571.24 405.492 560.18 401.852 550.94C398.492 541.7 393.452 534.56 386.732 529.52C380.292 524.48 372.312 521.96 362.792 521.96C353.272 521.96 345.152 524.48 338.432 529.52C331.712 534.56 326.532 541.7 322.892 550.94C319.532 560.18 317.852 571.24 317.852 584.12C317.852 597 319.532 608.2 322.892 617.72C326.532 626.96 331.712 634.24 338.432 639.56C345.152 644.6 353.272 647.12 362.792 647.12ZM574.229 699.2C550.149 698.64 531.669 695.28 518.789 689.12C506.189 682.96 497.509 674.28 492.749 663.08C488.269 651.6 486.029 638.02 486.029 622.34V379.16L548.609 369.08V609.74C548.609 620.94 550.569 629.76 554.489 636.2C558.689 642.64 568.209 646.42 583.049 647.54L574.229 699.2ZM683.6 700.88C662.04 700.88 643 695.98 626.48 686.18C610.24 676.38 597.5 662.8 588.26 645.44C579.3 627.8 574.82 607.36 574.82 584.12C574.82 560.88 579.44 540.58 588.68 523.22C598.2 505.86 611.22 492.42 627.74 482.9C644.26 473.1 662.88 468.2 683.6 468.2C704.88 468.2 723.64 473.1 739.88 482.9C756.12 492.42 768.86 505.86 778.1 523.22C787.34 540.58 791.96 560.88 791.96 584.12C791.96 607.36 787.48 627.8 778.52 645.44C769.56 662.8 756.96 676.38 740.72 686.18C724.76 695.98 705.72 700.88 683.6 700.88ZM683.6 647.12C693.12 647.12 701.1 644.6 707.54 639.56C714.26 634.24 719.3 626.96 722.66 617.72C726.3 608.2 728.12 597 728.12 584.12C728.12 571.24 726.3 560.18 722.66 550.94C719.3 541.7 714.26 534.56 707.54 529.52C701.1 524.48 693.12 521.96 683.6 521.96C674.08 521.96 665.96 524.48 659.24 529.52C652.52 534.56 647.34 541.7 643.7 550.94C640.34 560.18 638.66 571.24 638.66 584.12C638.66 597 640.34 608.2 643.7 617.72C647.34 626.96 652.52 634.24 659.24 639.56C665.96 644.6 674.08 647.12 683.6 647.12ZM806.837 695V485.84C818.037 481.92 831.197 478.28 846.317 474.92C861.717 471.28 878.797 469.46 897.557 469.46C902.037 469.46 907.497 469.88 913.937 470.72C920.657 471.28 927.237 472.12 933.677 473.24C940.397 474.36 945.997 475.9 950.477 477.86L939.977 529.52C934.377 528.12 927.797 526.72 920.237 525.32C912.677 523.64 904.557 522.8 895.877 522.8C891.957 522.8 887.197 523.22 881.597 524.06C876.277 524.62 872.217 525.32 869.417 526.16V695H806.837Z" fill="white"/>
<path d="M137.416 685.34L116.42 719.387L116.545 719.464L116.671 719.54L137.416 685.34ZM100.036 643.76L63.4833 660.006L63.64 660.358L63.8034 660.707L100.036 643.76ZM101.716 526.16L66.2825 507.6L66.1662 507.822L66.0526 508.045L101.716 526.16ZM140.776 484.16L161.771 518.207L161.849 518.159L161.926 518.111L140.776 484.16ZM234.436 471.56L225.523 510.554L226.055 510.676L226.591 510.783L234.436 471.56ZM262.996 480.38L301.704 490.464L310.41 457.044L278.618 443.557L262.996 480.38ZM249.976 530.36L235.736 567.74L277.435 583.625L288.684 540.444L249.976 530.36ZM230.656 524.48L221.321 563.375H221.321L230.656 524.48ZM165.556 539.18L134.395 514.1L134.207 514.333L134.023 514.569L165.556 539.18ZM157.576 618.56L120.214 632.845L120.286 633.034L120.359 633.221L157.576 618.56ZM175.636 639.98L155.056 674.28L155.722 674.679L156.402 675.052L175.636 639.98ZM234.016 645.02L240.385 684.51V684.51L234.016 645.02ZM257.956 638.3L297.376 631.515L288.82 581.809L242.37 601.461L257.956 638.3ZM266.776 689.54L282.361 726.379L311.578 714.018L306.196 682.755L266.776 689.54ZM239.476 697.52L231.438 658.336L239.476 697.52ZM203.356 700.88V660.88C181.344 660.88 167.181 656.611 158.16 651.14L137.416 685.34L116.671 719.54C141.811 734.789 171.608 740.88 203.356 740.88V700.88ZM137.416 685.34L158.411 651.293C148.039 644.897 140.982 636.889 136.268 626.813L100.036 643.76L63.8034 660.707C75.33 685.35 93.193 705.063 116.42 719.387L137.416 685.34ZM100.036 643.76L136.588 627.514C131.302 615.62 128.276 601.518 128.276 584.54H88.2758H48.2758C48.2758 611.242 53.0896 636.62 63.4833 660.006L100.036 643.76ZM88.2758 584.54H128.276C128.276 569.069 131.482 555.883 137.379 544.275L101.716 526.16L66.0526 508.045C54.0292 531.717 48.2758 557.451 48.2758 584.54H88.2758ZM101.716 526.16L137.149 544.72C143.086 533.386 151.145 524.76 161.771 518.207L140.776 484.16L119.78 450.113C96.8068 464.28 78.8254 483.654 66.2825 507.6L101.716 526.16ZM140.776 484.16L161.926 518.111C171.58 512.097 184.389 508.2 202.096 508.2V468.2V428.2C172.202 428.2 144.132 434.943 119.626 450.209L140.776 484.16ZM202.096 468.2V508.2C211.349 508.2 219.091 509.084 225.523 510.554L234.436 471.56L243.349 432.566C230.181 429.556 216.363 428.2 202.096 428.2V468.2ZM234.436 471.56L226.591 510.783C233.712 512.207 240.627 514.341 247.374 517.203L262.996 480.38L278.618 443.557C266.885 438.579 254.759 434.833 242.28 432.337L234.436 471.56ZM262.996 480.38L224.288 470.296L211.268 520.276L249.976 530.36L288.684 540.444L301.704 490.464L262.996 480.38ZM249.976 530.36L264.216 492.98C256.526 490.051 248.424 487.609 239.991 485.585L230.656 524.48L221.321 563.375C226.887 564.711 231.665 566.189 235.736 567.74L249.976 530.36ZM230.656 524.48L239.991 485.585C229.384 483.039 218.34 481.96 207.136 481.96V521.96V561.96C213.292 561.96 217.928 562.561 221.321 563.375L230.656 524.48ZM207.136 521.96V481.96C179.911 481.96 153.113 490.844 134.395 514.1L165.556 539.18L196.716 564.26C197.052 563.843 197.337 563.573 198.186 563.221C199.28 562.768 201.966 561.96 207.136 561.96V521.96ZM165.556 539.18L134.023 514.569C118.168 534.883 112.116 559.458 112.116 584.54H152.116H192.116C192.116 572.102 195.023 566.437 197.088 563.791L165.556 539.18ZM152.116 584.54H112.116C112.116 601.23 114.404 617.652 120.214 632.845L157.576 618.56L194.938 604.275C193.467 600.428 192.116 594.17 192.116 584.54H152.116ZM157.576 618.56L120.359 633.221C127.182 650.539 138.986 664.638 155.056 674.28L175.636 639.98L196.216 605.68C195.609 605.317 195.433 605.098 195.402 605.061C195.366 605.019 195.121 604.733 194.792 603.899L157.576 618.56ZM175.636 639.98L156.402 675.052C172.916 684.108 191.557 687.12 209.656 687.12V647.12V607.12C199.754 607.12 195.716 605.372 194.869 604.908L175.636 639.98ZM209.656 647.12V687.12C219.66 687.12 229.93 686.196 240.385 684.51L234.016 645.02L227.647 605.53C220.742 606.644 214.772 607.12 209.656 607.12V647.12ZM234.016 645.02L240.385 684.51C251.883 682.655 262.998 679.599 273.541 675.139L257.956 638.3L242.37 601.461C238.354 603.16 233.509 604.585 227.646 605.53L234.016 645.02ZM257.956 638.3L218.536 645.085L227.356 696.325L266.776 689.54L306.196 682.755L297.376 631.515L257.956 638.3ZM266.776 689.54L251.19 652.701C247.106 654.429 240.733 656.429 231.438 658.336L239.476 697.52L247.514 736.704C260.058 734.131 271.886 730.811 282.361 726.379L266.776 689.54ZM239.476 697.52L231.438 658.336C223.586 659.947 214.285 660.88 203.356 660.88V700.88V740.88C218.747 740.88 233.526 739.573 247.514 736.704L239.476 697.52ZM305.672 686.18L285.005 720.428L285.134 720.505L285.264 720.582L305.672 686.18ZM267.452 645.44L231.789 663.555L231.962 663.896L232.142 664.234L267.452 645.44ZM267.872 523.22L232.799 503.987L232.679 504.206L232.562 504.426L267.872 523.22ZM306.932 482.9L326.904 517.557L327.123 517.431L327.34 517.302L306.932 482.9ZM419.072 482.9L398.405 517.148L398.623 517.279L398.843 517.408L419.072 482.9ZM457.292 523.22L492.602 504.426V504.426L457.292 523.22ZM457.712 645.44L493.257 663.786L493.316 663.67L493.375 663.555L457.712 645.44ZM419.912 686.18L399.245 651.932L399.113 652.012L398.981 652.093L419.912 686.18ZM386.732 639.56L411.384 671.06L411.472 670.991L411.56 670.922L386.732 639.56ZM401.852 617.72L364.49 603.434L364.372 603.741L364.26 604.05L401.852 617.72ZM401.852 550.94L364.26 564.61L364.441 565.108L364.635 565.601L401.852 550.94ZM386.732 529.52L362.079 561.02L362.403 561.273L362.732 561.52L386.732 529.52ZM338.432 529.52L314.432 497.52L314.432 497.52L338.432 529.52ZM322.892 550.94L285.675 536.279L285.481 536.772L285.3 537.27L322.892 550.94ZM322.892 617.72L285.172 631.033L285.412 631.711L285.675 632.381L322.892 617.72ZM338.432 639.56L313.604 670.922L314.013 671.246L314.432 671.56L338.432 639.56ZM362.792 700.88V660.88C347.513 660.88 335.692 657.48 326.08 651.778L305.672 686.18L285.264 720.582C308.691 734.48 334.95 740.88 362.792 740.88V700.88ZM305.672 686.18L326.338 651.932C316.52 646.008 308.737 637.872 302.762 626.646L267.452 645.44L232.142 664.234C244.646 687.728 262.344 706.752 285.005 720.428L305.672 686.18ZM267.452 645.44L303.115 627.325C297.464 616.2 294.012 602.161 294.012 584.12H254.012H214.012C214.012 612.559 219.519 639.4 231.789 663.555L267.452 645.44ZM254.012 584.12H294.012C294.012 566.244 297.536 552.622 303.182 542.014L267.872 523.22L232.562 504.426C219.728 528.538 214.012 555.516 214.012 584.12H254.012ZM267.872 523.22L302.944 542.453C309.081 531.262 316.986 523.272 326.904 517.557L306.932 482.9L286.96 448.243C263.837 461.568 245.702 480.458 232.799 503.987L267.872 523.22ZM306.932 482.9L327.34 517.302C337.198 511.454 348.668 508.2 362.792 508.2V468.2V428.2C335.475 428.2 309.705 434.746 286.524 448.498L306.932 482.9ZM362.792 468.2V508.2C377.698 508.2 389.138 511.555 398.405 517.148L419.072 482.9L439.738 448.652C416.526 434.645 390.445 428.2 362.792 428.2V468.2ZM419.072 482.9L398.843 517.408C408.407 523.014 416.056 530.88 421.982 542.014L457.292 523.22L492.602 504.426C480.048 480.84 462.217 461.826 439.301 448.392L419.072 482.9ZM457.292 523.22L421.982 542.014C427.628 552.622 431.152 566.244 431.152 584.12H471.152H511.152C511.152 555.516 505.436 528.538 492.602 504.426L457.292 523.22ZM471.152 584.12H431.152C431.152 602.161 427.699 616.2 422.049 627.325L457.712 645.44L493.375 663.555C505.644 639.4 511.152 612.559 511.152 584.12H471.152ZM457.712 645.44L422.167 627.094C416.493 638.087 408.954 646.074 399.245 651.932L419.912 686.18L440.578 720.427C463.35 706.686 481.01 687.513 493.257 663.786L457.712 645.44ZM419.912 686.18L398.981 652.093C390.379 657.375 378.876 660.88 362.792 660.88V700.88V740.88C390.947 740.88 417.524 734.585 440.842 720.267L419.912 686.18ZM362.792 647.12V687.12C379.717 687.12 396.789 682.482 411.384 671.06L386.732 639.56L362.079 608.06C362.364 607.837 362.692 607.623 363.04 607.441C363.386 607.259 363.677 607.148 363.871 607.087C364.272 606.96 364.018 607.12 362.792 607.12V647.12ZM386.732 639.56L411.56 670.922C424.907 660.356 433.931 646.549 439.443 631.39L401.852 617.72L364.26 604.05C363.053 607.371 361.997 608.124 361.904 608.198L386.732 639.56ZM401.852 617.72L439.214 632.005C444.99 616.899 447.312 600.649 447.312 584.12H407.312H367.312C367.312 593.351 365.993 599.501 364.49 603.434L401.852 617.72ZM407.312 584.12H447.312C447.312 567.64 445.004 551.347 439.068 536.279L401.852 550.94L364.635 565.601C365.979 569.013 367.312 574.84 367.312 584.12H407.312ZM401.852 550.94L439.443 537.27C433.891 522 424.665 507.97 410.732 497.52L386.732 529.52L362.732 561.52C362.617 561.434 362.664 561.426 362.873 561.722C363.109 562.056 363.644 562.917 364.26 564.61L401.852 550.94ZM386.732 529.52L411.384 498.02C396.789 486.598 379.717 481.96 362.792 481.96V521.96V561.96C364.018 561.96 364.272 562.12 363.871 561.993C363.677 561.932 363.386 561.821 363.04 561.639C362.692 561.457 362.364 561.243 362.079 561.02L386.732 529.52ZM362.792 521.96V481.96C345.824 481.96 328.983 486.606 314.432 497.52L338.432 529.52L362.432 561.52C362.288 561.627 362.103 561.746 361.891 561.854C361.68 561.961 361.511 562.023 361.418 562.053C361.327 562.081 361.366 562.06 361.571 562.03C361.78 562.001 362.177 561.96 362.792 561.96V521.96ZM338.432 529.52L314.432 497.52C300.781 507.758 291.53 521.418 285.675 536.279L322.892 550.94L360.108 565.601C360.845 563.729 361.502 562.67 361.884 562.144C362.241 561.651 362.432 561.52 362.432 561.52L338.432 529.52ZM322.892 550.94L285.3 537.27C279.939 552.014 277.852 567.944 277.852 584.12H317.852H357.852C357.852 574.536 359.125 568.346 360.483 564.61L322.892 550.94ZM317.852 584.12H277.852C277.852 600.344 279.952 616.242 285.172 631.033L322.892 617.72L360.611 604.407C359.112 600.158 357.852 593.656 357.852 584.12H317.852ZM322.892 617.72L285.675 632.381C291.485 647.129 300.529 660.571 313.604 670.922L338.432 639.56L363.26 608.198C362.895 607.909 361.578 606.791 360.108 603.059L322.892 617.72ZM338.432 639.56L314.432 671.56C328.983 682.474 345.824 687.12 362.792 687.12V647.12V607.12C362.177 607.12 361.78 607.079 361.571 607.049C361.366 607.02 361.327 606.999 361.418 607.027C361.511 607.057 361.68 607.118 361.891 607.226C362.103 607.334 362.288 607.453 362.432 607.56L338.432 639.56ZM574.229 699.2L573.299 739.189L607.843 739.993L613.658 705.932L574.229 699.2ZM518.789 689.12L501.22 725.055L501.375 725.131L501.531 725.205L518.789 689.12ZM492.749 663.08L455.486 677.622L455.703 678.177L455.936 678.726L492.749 663.08ZM486.029 379.16L479.668 339.669L446.029 345.087V379.16H486.029ZM548.609 369.08H588.609V322.121L542.248 329.589L548.609 369.08ZM554.489 636.2L520.321 656.998L520.645 657.529L520.984 658.051L554.489 636.2ZM583.049 647.54L622.478 654.272L629.873 610.96L586.059 607.653L583.049 647.54ZM574.229 699.2L575.159 659.211C553.366 658.704 541.47 655.628 536.047 653.035L518.789 689.12L501.531 725.205C521.868 734.932 546.931 738.576 573.299 739.189L574.229 699.2ZM518.789 689.12L536.357 653.185C531.005 650.568 529.99 648.441 529.562 647.434L492.749 663.08L455.936 678.726C465.028 700.119 481.372 715.352 501.22 725.055L518.789 689.12ZM492.749 663.08L530.012 648.538C527.759 642.765 526.029 634.342 526.029 622.34H486.029H446.029C446.029 641.698 448.779 660.435 455.486 677.622L492.749 663.08ZM486.029 622.34H526.029V379.16H486.029H446.029V622.34H486.029ZM486.029 379.16L492.39 418.651L554.97 408.571L548.609 369.08L542.248 329.589L479.668 339.669L486.029 379.16ZM548.609 369.08H508.609V609.74H548.609H588.609V369.08H548.609ZM548.609 609.74H508.609C508.609 624.951 511.165 641.956 520.321 656.998L554.489 636.2L588.657 615.402C589.378 616.586 589.338 617.031 589.126 616.078C588.909 615.099 588.609 613.085 588.609 609.74H548.609ZM554.489 636.2L520.984 658.051C536.24 681.443 563.466 686.176 580.039 687.427L583.049 647.54L586.059 607.653C583.678 607.474 581.961 607.219 580.804 606.987C579.631 606.751 579.285 606.587 579.54 606.688C579.944 606.849 584.296 608.68 587.993 614.349L554.489 636.2ZM583.049 647.54L543.619 640.808L534.799 692.468L574.229 699.2L613.658 705.932L622.478 654.272L583.049 647.54ZM626.48 686.18L605.813 720.428L605.942 720.505L606.071 720.582L626.48 686.18ZM588.26 645.44L552.596 663.555L552.77 663.896L552.95 664.234L588.26 645.44ZM588.68 523.22L553.607 503.987L553.487 504.206L553.37 504.426L588.68 523.22ZM627.74 482.9L647.711 517.557L647.93 517.431L648.148 517.302L627.74 482.9ZM739.88 482.9L719.213 517.148L719.431 517.279L719.651 517.408L739.88 482.9ZM778.1 523.22L813.409 504.426V504.426L778.1 523.22ZM778.52 645.44L814.064 663.786L814.124 663.67L814.183 663.555L778.52 645.44ZM740.72 686.18L720.053 651.932L719.921 652.012L719.789 652.093L740.72 686.18ZM707.54 639.56L732.192 671.06L732.28 670.991L732.368 670.922L707.54 639.56ZM722.66 617.72L685.297 603.434L685.18 603.741L685.068 604.05L722.66 617.72ZM722.66 550.94L685.068 564.61L685.249 565.108L685.443 565.601L722.66 550.94ZM707.54 529.52L682.887 561.02L683.211 561.273L683.54 561.52L707.54 529.52ZM659.24 529.52L635.24 497.52V497.52L659.24 529.52ZM643.7 550.94L606.483 536.279L606.289 536.772L606.108 537.27L643.7 550.94ZM643.7 617.72L605.98 631.033L606.219 631.711L606.483 632.381L643.7 617.72ZM659.24 639.56L634.411 670.922L634.821 671.246L635.24 671.56L659.24 639.56ZM683.6 700.88V660.88C668.321 660.88 656.5 657.48 646.888 651.778L626.48 686.18L606.071 720.582C629.499 734.48 655.758 740.88 683.6 740.88V700.88ZM626.48 686.18L647.146 651.932C637.328 646.008 629.545 637.872 623.569 626.646L588.26 645.44L552.95 664.234C565.454 687.728 583.151 706.752 605.813 720.428L626.48 686.18ZM588.26 645.44L623.923 627.325C618.272 616.2 614.82 602.161 614.82 584.12H574.82H534.82C534.82 612.559 540.327 639.4 552.596 663.555L588.26 645.44ZM574.82 584.12H614.82C614.82 566.244 618.343 552.622 623.989 542.014L588.68 523.22L553.37 504.426C540.536 528.538 534.82 555.516 534.82 584.12H574.82ZM588.68 523.22L623.752 542.453C629.889 531.262 637.794 523.272 647.711 517.557L627.74 482.9L607.768 448.243C584.645 461.568 566.51 480.458 553.607 503.987L588.68 523.22ZM627.74 482.9L648.148 517.302C658.006 511.454 669.476 508.2 683.6 508.2V468.2V428.2C656.283 428.2 630.513 434.746 607.331 448.498L627.74 482.9ZM683.6 468.2V508.2C698.506 508.2 709.946 511.555 719.213 517.148L739.88 482.9L760.546 448.652C737.333 434.645 711.253 428.2 683.6 428.2V468.2ZM739.88 482.9L719.651 517.408C729.215 523.014 736.864 530.88 742.79 542.014L778.1 523.22L813.409 504.426C800.855 480.84 783.025 461.826 760.108 448.392L739.88 482.9ZM778.1 523.22L742.79 542.014C748.436 552.622 751.96 566.244 751.96 584.12H791.96H831.96C831.96 555.516 826.243 528.538 813.409 504.426L778.1 523.22ZM791.96 584.12H751.96C751.96 602.161 748.507 616.2 742.856 627.325L778.52 645.44L814.183 663.555C826.452 639.4 831.96 612.559 831.96 584.12H791.96ZM778.52 645.44L742.975 627.094C737.301 638.087 729.762 646.074 720.053 651.932L740.72 686.18L761.386 720.427C784.157 706.686 801.818 687.513 814.064 663.786L778.52 645.44ZM740.72 686.18L719.789 652.093C711.187 657.375 699.684 660.88 683.6 660.88V700.88V740.88C711.755 740.88 738.332 734.585 761.65 720.267L740.72 686.18ZM683.6 647.12V687.12C700.525 687.12 717.597 682.482 732.192 671.06L707.54 639.56L682.887 608.06C683.172 607.837 683.5 607.623 683.848 607.441C684.194 607.259 684.485 607.148 684.679 607.087C685.08 606.96 684.826 607.12 683.6 607.12V647.12ZM707.54 639.56L732.368 670.922C745.714 660.356 754.739 646.549 760.251 631.39L722.66 617.72L685.068 604.05C683.86 607.371 682.805 608.124 682.711 608.198L707.54 639.56ZM722.66 617.72L760.022 632.005C765.798 616.899 768.12 600.649 768.12 584.12H728.12H688.12C688.12 593.351 686.801 599.501 685.297 603.434L722.66 617.72ZM728.12 584.12H768.12C768.12 567.64 765.812 551.347 759.876 536.279L722.66 550.94L685.443 565.601C686.787 569.013 688.12 574.84 688.12 584.12H728.12ZM722.66 550.94L760.251 537.27C754.698 522 745.473 507.97 731.54 497.52L707.54 529.52L683.54 561.52C683.424 561.434 683.471 561.426 683.681 561.722C683.916 562.056 684.452 562.917 685.068 564.61L722.66 550.94ZM707.54 529.52L732.192 498.02C717.597 486.598 700.525 481.96 683.6 481.96V521.96V561.96C684.826 561.96 685.08 562.12 684.679 561.993C684.485 561.932 684.194 561.821 683.848 561.639C683.5 561.457 683.172 561.243 682.887 561.02L707.54 529.52ZM683.6 521.96V481.96C666.632 481.96 649.791 486.606 635.24 497.52L659.24 529.52L683.24 561.52C683.096 561.627 682.911 561.746 682.699 561.854C682.488 561.961 682.319 562.023 682.226 562.053C682.135 562.081 682.174 562.06 682.379 562.03C682.588 562.001 682.984 561.96 683.6 561.96V521.96ZM659.24 529.52L635.24 497.52C621.589 507.758 612.338 521.418 606.483 536.279L643.7 550.94L680.916 565.601C681.653 563.729 682.31 562.67 682.691 562.144C683.049 561.651 683.239 561.52 683.24 561.52L659.24 529.52ZM643.7 550.94L606.108 537.27C600.746 552.014 598.66 567.944 598.66 584.12H638.66H678.66C678.66 574.536 679.933 568.346 681.291 564.61L643.7 550.94ZM638.66 584.12H598.66C598.66 600.344 600.76 616.242 605.98 631.033L643.7 617.72L681.419 604.407C679.92 600.158 678.66 593.656 678.66 584.12H638.66ZM643.7 617.72L606.483 632.381C612.293 647.129 621.337 660.571 634.411 670.922L659.24 639.56L684.068 608.198C683.702 607.909 682.386 606.791 680.916 603.059L643.7 617.72ZM659.24 639.56L635.24 671.56C649.791 682.474 666.632 687.12 683.6 687.12V647.12V607.12C682.984 607.12 682.588 607.079 682.379 607.049C682.174 607.02 682.135 606.999 682.226 607.027C682.319 607.057 682.488 607.118 682.699 607.226C682.911 607.334 683.096 607.453 683.24 607.56L659.24 639.56ZM806.837 695H766.837V735H806.837V695ZM806.837 485.84L793.623 448.086L766.837 457.461V485.84H806.837ZM846.317 474.92L854.994 513.967L855.256 513.909L855.518 513.847L846.317 474.92ZM913.937 470.72L908.763 510.384L909.687 510.504L910.615 510.582L913.937 470.72ZM933.677 473.24L926.823 512.648L926.962 512.673L927.101 512.696L933.677 473.24ZM950.477 477.86L989.675 485.827L996.111 454.164L966.51 441.214L950.477 477.86ZM939.977 529.52L930.275 568.326L970.846 578.468L979.175 537.487L939.977 529.52ZM920.237 525.32L911.559 564.367L912.254 564.522L912.953 564.651L920.237 525.32ZM881.597 524.06L885.784 563.84L886.66 563.748L887.53 563.617L881.597 524.06ZM869.417 526.16L857.923 487.847L829.417 496.399V526.16H869.417ZM869.417 695V735H909.417V695H869.417ZM806.837 695H846.837V485.84H806.837H766.837V695H806.837ZM806.837 485.84L820.051 523.594C829.397 520.323 840.975 517.083 854.994 513.967L846.317 474.92L837.639 435.872C821.418 439.477 806.677 443.517 793.623 448.086L806.837 485.84ZM846.317 474.92L855.518 513.847C867.407 511.037 881.341 509.46 897.557 509.46V469.46V429.46C876.252 429.46 856.026 431.523 837.116 435.993L846.317 474.92ZM897.557 469.46V509.46C899.728 509.46 903.349 509.678 908.763 510.384L913.937 470.72L919.11 431.056C911.645 430.082 904.345 429.46 897.557 429.46V469.46ZM913.937 470.72L910.615 510.582C916.189 511.046 921.589 511.738 926.823 512.648L933.677 473.24L940.53 433.832C932.884 432.502 925.125 431.514 917.259 430.858L913.937 470.72ZM933.677 473.24L927.101 512.696C931.736 513.468 933.911 514.273 934.444 514.506L950.477 477.86L966.51 441.214C958.083 437.527 949.058 435.252 940.253 433.784L933.677 473.24ZM950.477 477.86L911.278 469.893L900.778 521.553L939.977 529.52L979.175 537.487L989.675 485.827L950.477 477.86ZM939.977 529.52L949.678 490.714C943.066 489.061 935.644 487.493 927.52 485.989L920.237 525.32L912.953 564.651C919.95 565.947 925.687 567.179 930.275 568.326L939.977 529.52ZM920.237 525.32L928.914 486.273C918.187 483.889 907.13 482.8 895.877 482.8V522.8V562.8C901.983 562.8 907.167 563.391 911.559 564.367L920.237 525.32ZM895.877 522.8V482.8C889.311 482.8 882.445 483.485 875.663 484.503L881.597 524.06L887.53 563.617C891.949 562.955 894.602 562.8 895.877 562.8V522.8ZM881.597 524.06L877.409 484.28C871.289 484.924 864.308 485.931 857.923 487.847L869.417 526.16L880.911 564.473C880.288 564.66 880.328 564.601 881.358 564.423C882.312 564.259 883.756 564.054 885.784 563.84L881.597 524.06ZM869.417 526.16H829.417V695H869.417H909.417V526.16H869.417ZM869.417 695V655H806.837V695V735H869.417V695Z" fill="#4B0088" mask="url(#path-11-outside-1_3323_75)"/>
</g>
<defs>
<linearGradient id="paint0_linear_3323_75" x1="512" y1="0" x2="512" y2="1024" gradientUnits="userSpaceOnUse">
<stop offset="0.182692" stop-color="#1E1E2E"/>
<stop offset="0.9375" stop-color="#0B0B10"/>
</linearGradient>
<linearGradient id="paint1_linear_3323_75" x1="512" y1="0" x2="512" y2="1024" gradientUnits="userSpaceOnUse">
<stop offset="0.182692" stop-color="#AA43FF"/>
<stop offset="0.9375"/>
</linearGradient>
<linearGradient id="paint2_linear_3323_75" x1="768" y1="584" x2="1024" y2="584" gradientUnits="userSpaceOnUse">
<stop stop-color="#001AFF"/>
<stop offset="1" stop-color="#AA43FF"/>
</linearGradient>
</defs>
</svg>
