<svg width="1024" height="1024" viewBox="0 0 1024 1024" fill="none" xmlns="http://www.w3.org/2000/svg">
<mask id="mask0_3323_75" style="mask-type:alpha" maskUnits="userSpaceOnUse" x="0" y="0" width="1024" height="1024">
<rect width="1024" height="1024" fill="url(#paint0_linear_3323_75)"/>
</mask>
<g mask="url(#mask0_3323_75)">
<rect width="1024" height="1024" rx="80" fill="url(#paint1_linear_3323_75)"/>
<path d="M880 548L542.446 994L200 102L542.446 102L880 548Z" fill="url(#paint2_linear_3323_75)"/>
<path d="M203.356 588.88C176.476 588.88 154.496 583.7 137.416 573.34C120.616 562.98 108.156 549.12 100.036 531.76C92.1958 514.12 88.2758 494.38 88.2758 472.54C88.2758 451.26 92.7558 431.8 101.716 414.16C110.956 396.52 123.976 382.52 140.776 372.16C157.856 361.52 178.296 356.2 202.096 356.2C213.856 356.2 224.636 357.32 234.436 359.56C244.236 361.52 253.756 364.46 262.996 368.38L249.976 418.36C244.096 416.12 237.656 414.16 230.656 412.48C223.656 410.8 215.816 409.96 207.136 409.96C188.656 409.96 174.796 415.7 165.556 427.18C156.596 438.66 152.116 453.78 152.116 472.54C152.116 485.7 153.936 497.04 157.576 506.56C161.216 515.8 167.236 522.94 175.636 527.98C184.316 532.74 195.656 535.12 209.656 535.12C217.216 535.12 225.336 534.42 234.016 533.02C242.696 531.62 250.676 529.38 257.956 526.3L266.776 577.54C259.496 580.62 250.396 583.28 239.476 585.52C228.556 587.76 216.516 588.88 203.356 588.88ZM362.792 588.88C341.232 588.88 322.192 583.98 305.672 574.18C289.432 564.38 276.692 550.8 267.452 533.44C258.492 515.8 254.012 495.36 254.012 472.12C254.012 448.88 258.632 428.58 267.872 411.22C277.392 393.86 290.412 380.42 306.932 370.9C323.452 361.1 342.072 356.2 362.792 356.2C384.072 356.2 402.832 361.1 419.072 370.9C435.312 380.42 448.052 393.86 457.292 411.22C466.532 428.58 471.152 448.88 471.152 472.12C471.152 495.36 466.672 515.8 457.712 533.44C448.752 550.8 436.152 564.38 419.912 574.18C403.952 583.98 384.912 588.88 362.792 588.88ZM362.792 535.12C372.312 535.12 380.292 532.6 386.732 527.56C393.452 522.24 398.492 514.96 401.852 505.72C405.492 496.2 407.312 485 407.312 472.12C407.312 459.24 405.492 448.18 401.852 438.94C398.492 429.7 393.452 422.56 386.732 417.52C380.292 412.48 372.312 409.96 362.792 409.96C353.272 409.96 345.152 412.48 338.432 417.52C331.712 422.56 326.532 429.7 322.892 438.94C319.532 448.18 317.852 459.24 317.852 472.12C317.852 485 319.532 496.2 322.892 505.72C326.532 514.96 331.712 522.24 338.432 527.56C345.152 532.6 353.272 535.12 362.792 535.12ZM574.229 587.2C550.149 586.64 531.669 583.28 518.789 577.12C506.189 570.96 497.509 562.28 492.749 551.08C488.269 539.6 486.029 526.02 486.029 510.34V267.16L548.609 257.08V497.74C548.609 508.94 550.569 517.76 554.489 524.2C558.689 530.64 568.209 534.42 583.049 535.54L574.229 587.2ZM683.6 588.88C662.04 588.88 643 583.98 626.48 574.18C610.24 564.38 597.5 550.8 588.26 533.44C579.3 515.8 574.82 495.36 574.82 472.12C574.82 448.88 579.44 428.58 588.68 411.22C598.2 393.86 611.22 380.42 627.74 370.9C644.26 361.1 662.88 356.2 683.6 356.2C704.88 356.2 723.64 361.1 739.88 370.9C756.12 380.42 768.86 393.86 778.1 411.22C787.34 428.58 791.96 448.88 791.96 472.12C791.96 495.36 787.48 515.8 778.52 533.44C769.56 550.8 756.96 564.38 740.72 574.18C724.76 583.98 705.72 588.88 683.6 588.88ZM683.6 535.12C693.12 535.12 701.1 532.6 707.54 527.56C714.26 522.24 719.3 514.96 722.66 505.72C726.3 496.2 728.12 485 728.12 472.12C728.12 459.24 726.3 448.18 722.66 438.94C719.3 429.7 714.26 422.56 707.54 417.52C701.1 412.48 693.12 409.96 683.6 409.96C674.08 409.96 665.96 412.48 659.24 417.52C652.52 422.56 647.34 429.7 643.7 438.94C640.34 448.18 638.66 459.24 638.66 472.12C638.66 485 640.34 496.2 643.7 505.72C647.34 514.96 652.52 522.24 659.24 527.56C665.96 532.6 674.08 535.12 683.6 535.12ZM806.837 583V373.84C818.037 369.92 831.197 366.28 846.317 362.92C861.717 359.28 878.797 357.46 897.557 357.46C902.037 357.46 907.497 357.88 913.937 358.72C920.657 359.28 927.237 360.12 933.677 361.24C940.397 362.36 945.997 363.9 950.477 365.86L939.977 417.52C934.377 416.12 927.797 414.72 920.237 413.32C912.677 411.64 904.557 410.8 895.877 410.8C891.957 410.8 887.197 411.22 881.597 412.06C876.277 412.62 872.217 413.32 869.417 414.16V583H806.837Z" fill="#89B4FA"/>
</g>
<defs>
<linearGradient id="paint0_linear_3323_75" x1="512" y1="0" x2="512" y2="1024" gradientUnits="userSpaceOnUse">
<stop offset="0.182692" stop-color="#1E1E2E"/>
<stop offset="0.9375" stop-color="#0B0B10"/>
</linearGradient>
<linearGradient id="paint1_linear_3323_75" x1="512" y1="0" x2="512" y2="1024" gradientUnits="userSpaceOnUse">
<stop offset="0.182692" stop-color="#1E1E2E"/>
<stop offset="0.9375" stop-color="#0B0B10"/>
</linearGradient>
<linearGradient id="paint2_linear_3323_75" x1="540" y1="102" x2="540" y2="994" gradientUnits="userSpaceOnUse">
<stop stop-color="#A6E3A1"/>
<stop offset="0.860577" stop-color="#A6E3A1" stop-opacity="0"/>
</linearGradient>
</defs>
</svg>
