<svg width="1024" height="1024" viewBox="0 0 1024 1024" fill="none" xmlns="http://www.w3.org/2000/svg">
<mask id="mask0_3323_75" style="mask-type:alpha" maskUnits="userSpaceOnUse" x="0" y="0" width="1024" height="1024">
<rect width="1024" height="1024" fill="url(#paint0_linear_3323_75)"/>
</mask>
<g mask="url(#mask0_3323_75)">
<rect width="1024" height="1024" rx="80" fill="url(#paint1_linear_3323_75)"/>
<path d="M880 548L542.446 994L200 102L542.446 102L880 548Z" fill="url(#paint2_linear_3323_75)"/>
<path d="M203.356 700.88C176.476 700.88 154.496 695.7 137.416 685.34C120.616 674.98 108.156 661.12 100.036 643.76C92.1958 626.12 88.2758 606.38 88.2758 584.54C88.2758 563.26 92.7558 543.8 101.716 526.16C110.956 508.52 123.976 494.52 140.776 484.16C157.856 473.52 178.296 468.2 202.096 468.2C213.856 468.2 224.636 469.32 234.436 471.56C244.236 473.52 253.756 476.46 262.996 480.38L249.976 530.36C244.096 528.12 237.656 526.16 230.656 524.48C223.656 522.8 215.816 521.96 207.136 521.96C188.656 521.96 174.796 527.7 165.556 539.18C156.596 550.66 152.116 565.78 152.116 584.54C152.116 597.7 153.936 609.04 157.576 618.56C161.216 627.8 167.236 634.94 175.636 639.98C184.316 644.74 195.656 647.12 209.656 647.12C217.216 647.12 225.336 646.42 234.016 645.02C242.696 643.62 250.676 641.38 257.956 638.3L266.776 689.54C259.496 692.62 250.396 695.28 239.476 697.52C228.556 699.76 216.516 700.88 203.356 700.88ZM362.792 700.88C341.232 700.88 322.192 695.98 305.672 686.18C289.432 676.38 276.692 662.8 267.452 645.44C258.492 627.8 254.012 607.36 254.012 584.12C254.012 560.88 258.632 540.58 267.872 523.22C277.392 505.86 290.412 492.42 306.932 482.9C323.452 473.1 342.072 468.2 362.792 468.2C384.072 468.2 402.832 473.1 419.072 482.9C435.312 492.42 448.052 505.86 457.292 523.22C466.532 540.58 471.152 560.88 471.152 584.12C471.152 607.36 466.672 627.8 457.712 645.44C448.752 662.8 436.152 676.38 419.912 686.18C403.952 695.98 384.912 700.88 362.792 700.88ZM362.792 647.12C372.312 647.12 380.292 644.6 386.732 639.56C393.452 634.24 398.492 626.96 401.852 617.72C405.492 608.2 407.312 597 407.312 584.12C407.312 571.24 405.492 560.18 401.852 550.94C398.492 541.7 393.452 534.56 386.732 529.52C380.292 524.48 372.312 521.96 362.792 521.96C353.272 521.96 345.152 524.48 338.432 529.52C331.712 534.56 326.532 541.7 322.892 550.94C319.532 560.18 317.852 571.24 317.852 584.12C317.852 597 319.532 608.2 322.892 617.72C326.532 626.96 331.712 634.24 338.432 639.56C345.152 644.6 353.272 647.12 362.792 647.12ZM574.229 699.2C550.149 698.64 531.669 695.28 518.789 689.12C506.189 682.96 497.509 674.28 492.749 663.08C488.269 651.6 486.029 638.02 486.029 622.34V379.16L548.609 369.08V609.74C548.609 620.94 550.569 629.76 554.489 636.2C558.689 642.64 568.209 646.42 583.049 647.54L574.229 699.2ZM683.6 700.88C662.04 700.88 643 695.98 626.48 686.18C610.24 676.38 597.5 662.8 588.26 645.44C579.3 627.8 574.82 607.36 574.82 584.12C574.82 560.88 579.44 540.58 588.68 523.22C598.2 505.86 611.22 492.42 627.74 482.9C644.26 473.1 662.88 468.2 683.6 468.2C704.88 468.2 723.64 473.1 739.88 482.9C756.12 492.42 768.86 505.86 778.1 523.22C787.34 540.58 791.96 560.88 791.96 584.12C791.96 607.36 787.48 627.8 778.52 645.44C769.56 662.8 756.96 676.38 740.72 686.18C724.76 695.98 705.72 700.88 683.6 700.88ZM683.6 647.12C693.12 647.12 701.1 644.6 707.54 639.56C714.26 634.24 719.3 626.96 722.66 617.72C726.3 608.2 728.12 597 728.12 584.12C728.12 571.24 726.3 560.18 722.66 550.94C719.3 541.7 714.26 534.56 707.54 529.52C701.1 524.48 693.12 521.96 683.6 521.96C674.08 521.96 665.96 524.48 659.24 529.52C652.52 534.56 647.34 541.7 643.7 550.94C640.34 560.18 638.66 571.24 638.66 584.12C638.66 597 640.34 608.2 643.7 617.72C647.34 626.96 652.52 634.24 659.24 639.56C665.96 644.6 674.08 647.12 683.6 647.12ZM806.837 695V485.84C818.037 481.92 831.197 478.28 846.317 474.92C861.717 471.28 878.797 469.46 897.557 469.46C902.037 469.46 907.497 469.88 913.937 470.72C920.657 471.28 927.237 472.12 933.677 473.24C940.397 474.36 945.997 475.9 950.477 477.86L939.977 529.52C934.377 528.12 927.797 526.72 920.237 525.32C912.677 523.64 904.557 522.8 895.877 522.8C891.957 522.8 887.197 523.22 881.597 524.06C876.277 524.62 872.217 525.32 869.417 526.16V695H806.837Z" fill="#89B4FA"/>
</g>
<defs>
<linearGradient id="paint0_linear_3323_75" x1="512" y1="0" x2="512" y2="1024" gradientUnits="userSpaceOnUse">
<stop offset="0.182692" stop-color="#1E1E2E"/>
<stop offset="0.9375" stop-color="#0B0B10"/>
</linearGradient>
<linearGradient id="paint1_linear_3323_75" x1="512" y1="0" x2="512" y2="1024" gradientUnits="userSpaceOnUse">
<stop offset="0.182692" stop-color="#1E1E2E"/>
<stop offset="0.9375" stop-color="#0B0B10"/>
</linearGradient>
<linearGradient id="paint2_linear_3323_75" x1="540" y1="102" x2="540" y2="994" gradientUnits="userSpaceOnUse">
<stop stop-color="#A6E3A1"/>
<stop offset="0.860577" stop-color="#A6E3A1" stop-opacity="0"/>
</linearGradient>
</defs>
</svg>
